<svg width="24" height="24" viewBox="0 0 434.136 434.136"><path fill="currentColor" d="M354.295 84.173c26.361 8.117 55.507 1.468 75.511-18.533 3.905-3.905 3.905-10.237 0-14.142-3.905-3.905-10.236-3.906-14.142 0-17.878 17.877-45.771 21.204-67.831 8.09-39.643-23.568-86.842-33.542-132.897-28.08-43.519 5.159-83.275 23.139-115.7 52.184L82.912 67.369c4.818-8.462 6.081-18.493 3.305-28.265-3.531-12.428-13.059-21.956-25.487-25.487L14.133.381A10 10 0 0 0 1.782 12.732L15.018 59.33c3.531 12.428 13.059 21.956 25.487 25.487a37.706 37.706 0 0 0 10.313 1.452 36.181 36.181 0 0 0 17.946-4.762l16.199 16.199c-30.617 32.948-49.54 73.793-54.856 118.632-5.46 46.055 4.512 93.253 28.08 132.898 13.114 22.06 9.787 49.953-8.09 67.831-3.905 3.905-3.905 10.237 0 14.142 1.953 1.953 4.512 2.929 7.071 2.929s5.119-.977 7.071-2.929c20.001-20.002 26.651-49.15 18.533-75.511l130.091-130.091 63.981 63.981 3.259 42.378a10.01 10.01 0 0 0 2.899 6.304l56.698 56.698a9.999 9.999 0 0 0 16.994-5.831l3.761-30.081 30.081-3.76a10 10 0 1 0 5.831-16.993l-56.698-56.698a9.999 9.999 0 0 0-6.305-2.899l-42.379-3.26-63.981-63.981L354.295 84.173zm-14.909 282.194l-39.625-39.625-1.187-15.426 42.395 42.394-1.583 12.657zm28.382-28.381l-12.657 1.582-42.394-42.393 15.426 1.186 39.625 39.625zM334.95 75.234L212.863 197.32l-99.461-99.461c61.199-54.052 150.23-63.499 221.548-22.625zM45.97 65.578c-5.711-1.623-10.09-6.001-11.713-11.713l-8.335-29.344 29.344 8.335c5.711 1.623 10.09 6.001 11.713 11.713 1.709 6.018.089 12.251-4.334 16.674s-10.657 6.044-16.675 4.335zm27.862 270.773c-41.534-72.473-31.108-163.234 25.282-224.495l99.607 99.607L73.832 336.351z"/></svg>