<svg version="1" xmlns="http://www.w3.org/2000/svg" width="202.667" height="202.667" viewBox="0 0 152.000000 152.000000"><path d="M31 3.9c0 3.4-.5 4.4-3.4 6.6-3.3 2.5-3.4 2.5-7.7 1C13.3 9.1 8.6 8 7.8 8.8c-.4.4.4 4.4 1.8 8.9 2.5 7.7 2.5 8.2.9 10.7C9.1 30.5 8 31 4.4 31c-4 0-4.4.2-4.4 2.5 0 1.4 1.4 4.7 3.1 7.4l3 5-2.6 10.6c-2.4 9.6-2.6 12-2.3 24.3.3 9.9 1 15.2 2.3 19.1l1.9 5.4-2.8 5.1c-3.5 6.5-3.2 9.9.7 10.1 3.3.1 6.4 3.5 7.2 8 .3 1.7-.3 5.7-1.4 9.2-1 3.4-1.6 6.4-1.3 6.7 1.1 1.1 4.7.5 8.7-1.4 5-2.4 6.4-2.4 9.3-.2 2.2 1.7 3 3.5 3.1 7.4.1 2.8 3.6 2.2 10.4-1.6l6.2-3.5 4.2 1.9c5 2.2 20.1 5 27.1 5 6 0 14.6-1.5 23.5-4.1l6.8-2 4.8 3c6.4 4.2 8.7 4.1 9.4-.3.6-4 3.8-7.6 6.7-7.6 1.1 0 3.7.9 5.9 2.1 4 2 8.7 2.3 8.4.4-1-6.7-1.4-8.5-2.2-11.3-1.6-5.3 1.7-11.2 6.2-11.2 6.5 0 7.3-3 2.6-10-1.6-2.4-2.8-5.1-2.5-6 4.3-14.1 4.8-16.9 4.8-29 0-12.2-.8-17.3-4.5-27.5-1.6-4.5-1.1-6.8 2.8-11.9 3.7-4.9 3.4-7.4-1.2-7.8-2.6-.2-4.2-1.1-5.7-3.1-2-2.7-2-2.8-.2-7.5 2.4-6 2.7-10.8.6-10.4-.8.2-4.3 1.1-7.7 2-6.3 1.7-6.3 1.7-10.8-.8-4.1-2.2-4.6-2.9-4.3-5.5.4-4-2.7-4.5-8-1.1-2.1 1.3-4.5 2.6-5.3 2.7-.8.2-5.7-.8-10.9-2.1-13.1-3.4-29.9-3.2-41.2.3L47 5.8l-4.5-2.9c-2.8-1.8-5.9-2.9-8-2.9-3.4 0-3.5.1-3.5 3.9zm6 20.9c0 1.3-1.2 2.2-2.2 1.6-1-.6-.1-2.4 1.3-2.4.5 0 .9.4.9.8zm-16.1 8.8C18.7 35.9 13 37 13 35.1c0-.4 1.4-.7 3.1-.5 2.5.3 3.3-.1 4.7-2.6.9-1.6 1.9-2.5 2.1-1.9.2.6-.7 2.1-2 3.5zM46.5 31c-.3.5-1.1 1-1.6 1-.6 0-.7-.5-.4-1 .3-.6 1.1-1 1.6-1 .6 0 .7.4.4 1zm-18.9 4.6c-1.1.8-1.6 1.4-1.1 1.4s-.1.7-1.3 1.6c-1.2.8-2.8 1.3-3.5 1.1-.8-.4-.6-.6.4-.6.8-.1 2.5-1.5 3.8-3.2 1.3-1.7 2.6-2.8 2.9-2.4.4.4-.2 1.3-1.2 2.1zm12.4.9c-.7.9-1.5 1.3-1.8 1-.3-.2.1-1.1.8-2 .7-.9 1.5-1.3 1.8-1 .3.2-.1 1.1-.8 2zm40.2 1.9c1.4.6 1.6 2.6 1.7 13.2.2 13.9.3 14.4 3.4 16.3 3 1.9 23.1 2.8 25.1 1.2 1.9-1.6 3.6 1.4 3.6 6.4 0 5.5-1.4 7.5-4.7 6.6-3.7-1.1-18.2-1.4-22.7-.6-4.3.9-4.5 1.6-4.9 19.5l-.2 12.5-5.5.3c-7 .3-8.7-.7-7-3.9.8-1.4.9-2.4.3-2.6-.6-.2-.7-2.1-.3-4.6.8-5.8-.3-16.6-1.9-17.6-.7-.5-1.1-1.2-.9-1.6.7-1.7-7-2.7-16.9-2.2l-10.2.6-.6-3.3c-.4-1.8-.5-4.8-.2-6.7.3-2.9.7-3.4 2.8-3.2 1.3.1 6.7.5 11.9.9l9.5.6 3.3-3.1 3.3-3.2-.4-11.2c-.2-6.2-.6-11.8-.8-12.6-.7-2.5 7.6-3.7 12.3-1.7zm-50 9.8c-.9 2.4-2 4.6-2.5 4.9-.5.3-.8 1-.7 1.5.1.5-.3 1-.9 1.2-.6.2-1.1 0-1.1-.3 0-.9 6-11.5 6.5-11.5.2 0-.4 1.9-1.3 4.2zm21.4 1.5c2.5 2.9 2.6 3.7.3 2.8-1.4-.5-4.2-5.5-3.2-5.5.3 0 1.6 1.2 2.9 2.7zm-32.9.5c-.3.8-.6.5-.6-.6-.1-1.1.2-1.7.5-1.3.3.3.4 1.2.1 1.9zm34.4 48.5c-1.3 2.4-5.1 5.6-5.1 4.3 0-1.3 4.1-6 5.2-6 .5 0 .4.8-.1 1.7z"/></svg>